<?xml version="1.0" encoding="UTF-8" standalone="no"?>
<!-- Created with Inkscape (http://www.inkscape.org/) -->

<svg
   xmlns:dc="http://purl.org/dc/elements/1.1/"
   xmlns:cc="http://creativecommons.org/ns#"
   xmlns:rdf="http://www.w3.org/1999/02/22-rdf-syntax-ns#"
   xmlns:svg="http://www.w3.org/2000/svg"
   xmlns="http://www.w3.org/2000/svg"
   xmlns:sodipodi="http://sodipodi.sourceforge.net/DTD/sodipodi-0.dtd"
   xmlns:inkscape="http://www.inkscape.org/namespaces/inkscape"
   width="525.28571"
   height="217.91718"
   id="svg2"
   version="1.1"
   inkscape:version="0.48+devel r"
   viewBox="0 0 525.2857 217.91718"
   sodipodi:docname="group_thompson.svg">
  <sodipodi:namedview
     id="base"
     pagecolor="#ffffff"
     bordercolor="#666666"
     borderopacity="1.0"
     inkscape:pageopacity="0.0"
     inkscape:pageshadow="2"
     inkscape:zoom="1.4"
     inkscape:cx="269.52487"
     inkscape:cy="94.124961"
     inkscape:document-units="px"
     inkscape:current-layer="layer1"
     showgrid="false"
     showguides="true"
     inkscape:guide-bbox="true"
     inkscape:window-width="1615"
     inkscape:window-height="1026"
     inkscape:window-x="65"
     inkscape:window-y="24"
     inkscape:window-maximized="1"
     fit-margin-top="0"
     fit-margin-left="0"
     fit-margin-right="0"
     fit-margin-bottom="0">
    <sodipodi:guide
       orientation="0,1"
       position="210,107.14286"
       id="guide4079" />
  </sodipodi:namedview>
  <defs
     id="defs4">
    <marker
       inkscape:isstock="true"
       style="overflow:visible"
       id="marker4684"
       refX="0"
       refY="0"
       orient="auto"
       inkscape:stockid="Arrow1Mend">
      <path
         transform="matrix(-0.4,0,0,-0.4,-4,0)"
         style="fill:#000000;fill-opacity:1;fill-rule:evenodd;stroke:#000000;stroke-width:1pt;stroke-opacity:1"
         d="M 0,0 5,-5 -12.5,0 5,5 0,0 Z"
         id="path4686"
         inkscape:connector-curvature="0" />
    </marker>
    <marker
       inkscape:isstock="true"
       style="overflow:visible"
       id="marker4603"
       refX="0"
       refY="0"
       orient="auto"
       inkscape:stockid="Arrow1Mend">
      <path
         transform="matrix(-0.4,0,0,-0.4,-4,0)"
         style="fill:#000000;fill-opacity:1;fill-rule:evenodd;stroke:#000000;stroke-width:1pt;stroke-opacity:1"
         d="M 0,0 5,-5 -12.5,0 5,5 0,0 Z"
         id="path4605"
         inkscape:connector-curvature="0" />
    </marker>
    <marker
       inkscape:isstock="true"
       style="overflow:visible"
       id="marker4489"
       refX="0"
       refY="0"
       orient="auto"
       inkscape:stockid="Arrow1Mend"
       inkscape:collect="always">
      <path
         transform="matrix(-0.4,0,0,-0.4,-4,0)"
         style="fill:#000000;fill-opacity:1;fill-rule:evenodd;stroke:#000000;stroke-width:1pt;stroke-opacity:1"
         d="M 0,0 5,-5 -12.5,0 5,5 0,0 Z"
         id="path4491"
         inkscape:connector-curvature="0" />
    </marker>
    <marker
       inkscape:isstock="true"
       style="overflow:visible"
       id="marker4441"
       refX="0"
       refY="0"
       orient="auto"
       inkscape:stockid="Arrow1Mend">
      <path
         transform="matrix(-0.4,0,0,-0.4,-4,0)"
         style="fill:#000000;fill-opacity:1;fill-rule:evenodd;stroke:#000000;stroke-width:1pt;stroke-opacity:1"
         d="M 0,0 5,-5 -12.5,0 5,5 0,0 Z"
         id="path4443"
         inkscape:connector-curvature="0" />
    </marker>
    <marker
       inkscape:stockid="DotL"
       orient="auto"
       refY="0"
       refX="0"
       id="DotL"
       style="overflow:visible"
       inkscape:isstock="true">
      <path
         id="path4148"
         d="m -2.5,-1 c 0,2.76 -2.24,5 -5,5 -2.76,0 -5,-2.24 -5,-5 0,-2.76 2.24,-5 5,-5 2.76,0 5,2.24 5,5 z"
         style="fill:#000000;fill-opacity:1;fill-rule:evenodd;stroke:#000000;stroke-width:1pt;stroke-opacity:1"
         transform="matrix(0.8,0,0,0.8,5.92,0.8)"
         inkscape:connector-curvature="0" />
    </marker>
    <marker
       inkscape:stockid="Arrow1Mend"
       orient="auto"
       refY="0"
       refX="0"
       id="Arrow1Mend"
       style="overflow:visible"
       inkscape:isstock="true"
       inkscape:collect="always">
      <path
         id="path4096"
         d="M 0,0 5,-5 -12.5,0 5,5 0,0 Z"
         style="fill:#000000;fill-opacity:1;fill-rule:evenodd;stroke:#000000;stroke-width:1pt;stroke-opacity:1"
         transform="matrix(-0.4,0,0,-0.4,-4,0)"
         inkscape:connector-curvature="0" />
    </marker>
    <marker
       inkscape:stockid="Arrow1Lend"
       orient="auto"
       refY="0"
       refX="0"
       id="Arrow1Lend"
       style="overflow:visible"
       inkscape:isstock="true">
      <path
         id="path4090"
         d="M 0,0 5,-5 -12.5,0 5,5 0,0 Z"
         style="fill:#000000;fill-opacity:1;fill-rule:evenodd;stroke:#000000;stroke-width:1pt;stroke-opacity:1"
         transform="matrix(-0.8,0,0,-0.8,-10,0)"
         inkscape:connector-curvature="0" />
    </marker>
    <marker
       inkscape:isstock="true"
       style="overflow:visible"
       id="marker4441-0"
       refX="0"
       refY="0"
       orient="auto"
       inkscape:stockid="Arrow1Mend">
      <path
         transform="matrix(-0.4,0,0,-0.4,-4,0)"
         style="fill:#000000;fill-opacity:1;fill-rule:evenodd;stroke:#000000;stroke-width:1pt;stroke-opacity:1"
         d="M 0,0 5,-5 -12.5,0 5,5 0,0 Z"
         id="path4443-5"
         inkscape:connector-curvature="0" />
    </marker>
  </defs>
  <metadata
     id="metadata7">
    <rdf:RDF>
      <cc:Work
         rdf:about="">
        <dc:format>image/svg+xml</dc:format>
        <dc:type
           rdf:resource="http://purl.org/dc/dcmitype/StillImage" />
        <dc:title></dc:title>
      </cc:Work>
    </rdf:RDF>
  </metadata>
  <g
     inkscape:label="Layer 1"
     inkscape:groupmode="layer"
     id="layer1"
     transform="translate(-66.642861,-107.76323)">
    <circle
       style="fill:#ffffff;stroke:#000000;stroke-width:0.6226415;stroke-miterlimit:4;stroke-opacity:1;stroke-dasharray:none"
       id="path4062"
       cx="87.85714"
       cy="217.36218"
       r="20.902966"
       d="M 108.76011,217.36218 A 20.902966,20.902966 0 0 1 87.85714,238.26515 20.902966,20.902966 0 0 1 66.954174,217.36218 20.902966,20.902966 0 0 1 87.85714,196.45922 20.902966,20.902966 0 0 1 108.76011,217.36218 Z" />
    <circle
       style="fill:#ffffff;stroke:#000000;stroke-width:0.6226415;stroke-miterlimit:4;stroke-opacity:1;stroke-dasharray:none"
       id="path4062-4"
       cx="494.28571"
       cy="217.36218"
       r="20.902966"
       d="m 515.18867,217.36218 a 20.902966,20.902966 0 0 1 -20.90296,20.90297 20.902966,20.902966 0 0 1 -20.90297,-20.90297 20.902966,20.902966 0 0 1 20.90297,-20.90296 20.902966,20.902966 0 0 1 20.90296,20.90296 z" />
    <path
       style="fill:none;stroke:#000000;stroke-width:1px;stroke-linecap:butt;stroke-linejoin:miter;stroke-opacity:1;marker-start:url(#DotL);marker-end:url(#Arrow1Mend)"
       d="m 86.428566,150.21932 0.714285,45"
       id="path4081"
       inkscape:connector-curvature="0" />
    <path
       style="fill:none;stroke:#000000;stroke-width:1px;stroke-linecap:butt;stroke-linejoin:miter;stroke-opacity:1;marker-end:url(#marker4441)"
       d="m 108.57142,218.07646 67.14287,0"
       id="path4433"
       inkscape:connector-curvature="0" />
    <path
       style="fill:none;stroke:#000000;stroke-width:0.76525593px;stroke-linecap:butt;stroke-linejoin:miter;stroke-opacity:1;marker-end:url(#marker4489)"
       d="m 435.8203,218.07646 36.35558,0"
       id="path4481"
       inkscape:connector-curvature="0" />
    <circle
       style="fill:#ffffff;stroke:#000000;stroke-width:0.6226415;stroke-miterlimit:4;stroke-opacity:1;stroke-dasharray:none"
       id="path4062-4-8"
       cx="570.71429"
       cy="215.93362"
       r="20.902966"
       d="m 591.61726,215.93362 a 20.902966,20.902966 0 0 1 -20.90297,20.90297 20.902966,20.902966 0 0 1 -20.90296,-20.90297 20.902966,20.902966 0 0 1 20.90296,-20.90296 20.902966,20.902966 0 0 1 20.90297,20.90296 z" />
    <path
       style="fill:none;stroke:#000000;stroke-width:1px;stroke-linecap:butt;stroke-linejoin:miter;stroke-opacity:1;marker-end:url(#marker4684)"
       d="m 515,218.07646 32.85714,0"
       id="path4676"
       inkscape:connector-curvature="0" />
    <circle
       r="15.97634"
       cy="215.93362"
       cx="570.71429"
       id="circle4998"
       style="fill:#ffffff;stroke:#000000;stroke-width:0.47589099;stroke-miterlimit:4;stroke-opacity:1;stroke-dasharray:none"
       d="m 586.69063,215.93362 a 15.97634,15.97634 0 0 1 -15.97634,15.97634 15.97634,15.97634 0 0 1 -15.97634,-15.97634 15.97634,15.97634 0 0 1 15.97634,-15.97634 15.97634,15.97634 0 0 1 15.97634,15.97634 z" />
    <circle
       style="fill:#ffffff;stroke:#000000;stroke-width:0.6226415;stroke-miterlimit:4;stroke-opacity:1;stroke-dasharray:none"
       id="path4062-7"
       cx="198.07143"
       cy="217.82326"
       r="20.902966"
       d="m 218.97439,217.82326 a 20.902966,20.902966 0 0 1 -20.90296,20.90296 20.902966,20.902966 0 0 1 -20.90297,-20.90296 20.902966,20.902966 0 0 1 20.90297,-20.90297 20.902966,20.902966 0 0 1 20.90296,20.90297 z" />
    <path
       style="fill:none;stroke:#000000;stroke-width:0.76455307px;stroke-linecap:butt;stroke-linejoin:miter;stroke-opacity:1;marker-end:url(#marker4441-0)"
       d="m 219.22263,217.53755 37.07159,0"
       id="path4433-9"
       inkscape:connector-curvature="0" />
    <g
       transform="translate(40.000001,-57.142858)"
       id="g6158">
      <g
         style="font-style:normal;font-variant:normal;font-weight:normal;font-stretch:normal;letter-spacing:normal;word-spacing:normal;text-anchor:start;fill:none;stroke:#000000;stroke-linecap:butt;stroke-linejoin:miter;stroke-miterlimit:10.43299961;stroke-opacity:1;stroke-dasharray:none;stroke-dashoffset:0"
         id="content"
         transform="matrix(0.31131026,0,0,-0.31131026,-54.479295,393.96428)"
         xml:space="preserve"
         stroke-miterlimit="10.433"
         font-style="normal"
         font-variant="normal"
         font-weight="normal"
         font-stretch="normal"
         font-size-adjust="none"
         letter-spacing="normal"
         word-spacing="normal"><path
           style="fill:#000000;stroke-width:0"
           inkscape:connector-curvature="0"
           d="m 470.16,424.78 8.38,0 c 0.65,0 2.43,0 2.43,1.7 0,1.19 -1.04,1.19 -1.98,1.19 l -13.95,0 c -1,0 -2.94,0 -5.13,-2.35 -1.66,-1.78 -3.05,-4.17 -3.05,-4.48 0,-0.05 0,-0.48 0.6,-0.48 0.4,0 0.5,0.18 0.79,0.59 2.46,3.83 5.29,3.83 6.33,3.83 l 4.14,0 -4.89,-15.99 c -0.19,-0.59 -0.48,-1.64 -0.48,-1.84 0,-0.55 0.34,-1.34 1.44,-1.34 1.64,0 1.89,1.39 2.04,2.14 z"
           id="path6161" /><path
           style="fill:#000000;stroke-width:0"
           inkscape:connector-curvature="0"
           d="m 510.25,433.86 0.23,-0.36 0.22,-0.34 0.24,-0.32 0.24,-0.32 0.24,-0.3 0.24,-0.29 0.24,-0.29 0.25,-0.26 0.24,-0.26 0.25,-0.25 0.24,-0.24 0.25,-0.22 0.24,-0.21 0.24,-0.21 0.23,-0.19 0.24,-0.18 c 3.04,-2.3 6.08,-2.8 6.19,-2.8 0.59,0 0.59,0.55 0.59,0.96 0,0.79 -0.05,0.84 -1.14,1.18 -3.39,0.96 -5.33,2.75 -6.49,3.99 -2.53,2.75 -3.14,5.73 -3.43,7.33 -0.05,0.25 -0.25,0.45 -0.55,0.45 -0.45,0 -0.5,-0.3 -0.59,-0.91 -1.14,-5.53 -4.69,-9.4 -10.18,-10.95 -0.73,-0.25 -0.84,-0.25 -0.84,-1.09 0,-0.41 0,-0.96 0.59,-0.96 0.16,0 3.1,0.55 5.94,2.6 1.64,1.25 2.99,2.73 4.08,4.44 l 0,-35.54 c 0,-0.89 0,-1.79 1,-1.79 1,0 1,0.9 1,1.79 z"
           id="path6163" /></g>    </g>
    <g
       id="g6241"
       transform="translate(431.42858,-57.857144)">
      <g
         word-spacing="normal"
         letter-spacing="normal"
         font-size-adjust="none"
         font-stretch="normal"
         font-weight="normal"
         font-variant="normal"
         font-style="normal"
         stroke-miterlimit="10.433"
         xml:space="preserve"
         transform="matrix(0.31131026,0,0,-0.31131026,-54.479295,393.96428)"
         id="g6243"
         style="font-style:normal;font-variant:normal;font-weight:normal;font-stretch:normal;letter-spacing:normal;word-spacing:normal;text-anchor:start;fill:none;stroke:#000000;stroke-linecap:butt;stroke-linejoin:miter;stroke-miterlimit:10.43299961;stroke-opacity:1;stroke-dasharray:none;stroke-dashoffset:0"><path
           id="path6245"
           d="m 470.16,424.78 8.38,0 c 0.65,0 2.43,0 2.43,1.7 0,1.19 -1.04,1.19 -1.98,1.19 l -13.95,0 c -1,0 -2.94,0 -5.13,-2.35 -1.66,-1.78 -3.05,-4.17 -3.05,-4.48 0,-0.05 0,-0.48 0.6,-0.48 0.4,0 0.5,0.18 0.79,0.59 2.46,3.83 5.29,3.83 6.33,3.83 l 4.14,0 -4.89,-15.99 c -0.19,-0.59 -0.48,-1.64 -0.48,-1.84 0,-0.55 0.34,-1.34 1.44,-1.34 1.64,0 1.89,1.39 2.04,2.14 z"
           inkscape:connector-curvature="0"
           style="fill:#000000;stroke-width:0" /><path
           id="path6247"
           d="m 510.25,438.98 0,0.17 0,0.16 -0.01,0.17 0,0.08 -0.01,0.08 0,0.07 -0.01,0.08 -0.01,0.08 -0.01,0.07 -0.02,0.07 -0.01,0.07 -0.02,0.07 -0.03,0.06 -0.02,0.06 -0.03,0.06 -0.03,0.06 -0.03,0.05 -0.04,0.05 -0.04,0.05 -0.05,0.04 -0.05,0.04 -0.06,0.04 -0.03,0.01 -0.03,0.02 -0.03,0.01 -0.03,0.01 -0.03,0.02 -0.04,0.01 -0.04,0.01 -0.03,0 -0.04,0.01 -0.04,0.01 -0.05,0 -0.04,0 -0.04,0.01 -0.05,0 c -1,0 -1,-0.91 -1,-1.8 l 0,-35.52 c -1.19,1.9 -2.58,3.29 -3.83,4.24 -3.04,2.28 -6.08,2.78 -6.19,2.78 -0.59,0 -0.59,-0.55 -0.59,-0.94 0,-0.79 0.05,-0.86 1.16,-1.2 3.37,-0.94 5.32,-2.73 6.47,-3.98 2.54,-2.74 3.14,-5.74 3.43,-7.29 0.05,-0.23 0.21,-0.48 0.55,-0.48 0.45,0 0.5,0.34 0.59,0.8 1.11,5.62 4.69,9.51 10.18,11.04 0.75,0.25 0.84,0.25 0.84,1.11 0,0.39 0,0.94 -0.59,0.94 -0.16,0 -3.1,-0.55 -5.94,-2.59 -1.64,-1.24 -2.99,-2.74 -4.08,-4.43 z"
           inkscape:connector-curvature="0"
           style="fill:#000000;stroke-width:0" /></g>    </g>
    <rect
       style="fill:#ffffff;fill-opacity:1;stroke:#000000;stroke-width:0.88670456;stroke-miterlimit:4;stroke-opacity:1;stroke-dasharray:none"
       id="rect4427"
       width="180.1133"
       height="126.54189"
       x="255.65765"
       y="148.73412"
       rx="19.638523" />
    <text
       xml:space="preserve"
       style="font-size:17.5px;font-style:normal;font-weight:normal;line-height:125%;letter-spacing:0px;word-spacing:0px;fill:#000000;fill-opacity:1;stroke:none;font-family:Sans"
       x="269.71426"
       y="268.79074"
       id="text4429"
       sodipodi:linespacing="125%"><tspan
         sodipodi:role="line"
         id="tspan4431"
         x="269.71426"
         y="268.79074">S</tspan></text>
  </g>
</svg>
