<?xml version="1.0" encoding="UTF-8" standalone="no"?>
<!-- Created with Inkscape (http://www.inkscape.org/) -->

<svg
   xmlns:dc="http://purl.org/dc/elements/1.1/"
   xmlns:cc="http://creativecommons.org/ns#"
   xmlns:rdf="http://www.w3.org/1999/02/22-rdf-syntax-ns#"
   xmlns:svg="http://www.w3.org/2000/svg"
   xmlns="http://www.w3.org/2000/svg"
   xmlns:sodipodi="http://sodipodi.sourceforge.net/DTD/sodipodi-0.dtd"
   xmlns:inkscape="http://www.inkscape.org/namespaces/inkscape"
   width="1097.1786"
   height="371.51611"
   id="svg2"
   version="1.1"
   inkscape:version="0.48.4 r9939"
   sodipodi:docname="indirection.pdf">
  <sodipodi:namedview
     id="base"
     pagecolor="#ffffff"
     bordercolor="#666666"
     borderopacity="1.0"
     inkscape:pageopacity="0.0"
     inkscape:pageshadow="2"
     inkscape:zoom="0.7"
     inkscape:cx="387.61816"
     inkscape:cy="-92.872449"
     inkscape:document-units="px"
     inkscape:current-layer="layer1"
     showgrid="false"
     inkscape:window-width="1535"
     inkscape:window-height="876"
     inkscape:window-x="65"
     inkscape:window-y="24"
     inkscape:window-maximized="1"
     fit-margin-top="10"
     fit-margin-left="10"
     fit-margin-right="10"
     fit-margin-bottom="10" />
  <defs
     id="defs4">
    <marker
       style="overflow:visible"
       id="Arrow2Mend"
       refX="0"
       refY="0"
       orient="auto"
       inkscape:stockid="Arrow2Mend">
      <path
         transform="scale(-0.6,-0.6)"
         d="M 8.7185878,4.0337352 -2.2072895,0.01601326 8.7185884,-4.0017078 c -1.7454984,2.3720609 -1.7354408,5.6174519 -6e-7,8.035443 z"
         style="fill-rule:evenodd;stroke-width:0.625;stroke-linejoin:round"
         id="path4229"
         inkscape:connector-curvature="0" />
    </marker>
    <marker
       style="overflow:visible"
       id="Arrow1Lend"
       refX="0"
       refY="0"
       orient="auto"
       inkscape:stockid="Arrow1Lend">
      <path
         transform="matrix(-0.8,0,0,-0.8,-10,0)"
         style="fill-rule:evenodd;stroke:#000000;stroke-width:1pt"
         d="M 0,0 5,-5 -12.5,0 5,5 0,0 z"
         id="path4205"
         inkscape:connector-curvature="0" />
    </marker>
    <marker
       style="overflow:visible"
       id="DotM"
       refX="0"
       refY="0"
       orient="auto"
       inkscape:stockid="DotM">
      <path
         transform="matrix(0.4,0,0,0.4,2.96,0.4)"
         style="fill-rule:evenodd;stroke:#000000;stroke-width:1pt"
         d="m -2.5,-1 c 0,2.76 -2.24,5 -5,5 -2.76,0 -5,-2.24 -5,-5 0,-2.76 2.24,-5 5,-5 2.76,0 5,2.24 5,5 z"
         id="path4266"
         inkscape:connector-curvature="0" />
    </marker>
    <marker
       style="overflow:visible"
       id="DotL"
       refX="0"
       refY="0"
       orient="auto"
       inkscape:stockid="DotL">
      <path
         transform="matrix(0.8,0,0,0.8,5.92,0.8)"
         style="fill-rule:evenodd;stroke:#000000;stroke-width:1pt"
         d="m -2.5,-1 c 0,2.76 -2.24,5 -5,5 -2.76,0 -5,-2.24 -5,-5 0,-2.76 2.24,-5 5,-5 2.76,0 5,2.24 5,5 z"
         id="path4263"
         inkscape:connector-curvature="0" />
    </marker>
  </defs>
  <metadata
     id="metadata7">
    <rdf:RDF>
      <cc:Work
         rdf:about="">
        <dc:format>image/svg+xml</dc:format>
        <dc:type
           rdf:resource="http://purl.org/dc/dcmitype/StillImage" />
        <dc:title></dc:title>
      </cc:Work>
    </rdf:RDF>
  </metadata>
  <g
     id="layer1"
     inkscape:groupmode="layer"
     inkscape:label="Layer 1"
     transform="translate(-13.743244,118.04287)">
    <g
       style="stroke:#000000;stroke-opacity:1"
       id="g3207"
       transform="matrix(3.6836595,0,0,1.8209963,-64.257384,-362.07598)">
      <rect
         ry="6.230617"
         y="140.32599"
         x="25.243244"
         height="101.64726"
         width="290.17859"
         id="rect3209"
         style="fill:#c4cfd4;fill-opacity:1;stroke:#000000;stroke-width:1.15831578;stroke-miterlimit:4;stroke-opacity:1;stroke-dasharray:none" />
    </g>
    <flowRoot
       style="font-size:40px;font-style:normal;font-weight:normal;line-height:125%;letter-spacing:0px;word-spacing:0px;fill:#000000;fill-opacity:1;stroke:none;font-family:Sans"
       id="flowRoot2987"
       xml:space="preserve"><flowRegion
         id="flowRegion2989"><rect
           y="164.4381"
           x="35.355339"
           height="44.446712"
           width="78.791901"
           id="rect2991" /></flowRegion><flowPara
         id="flowPara2993" /></flowRoot>    <g
       id="g3042">
      <rect
         style="fill:#c4cfd4;fill-opacity:1;stroke:#000000;stroke-width:3;stroke-miterlimit:4;stroke-opacity:1;stroke-dasharray:none"
         id="rect2985"
         width="290.17859"
         height="101.64726"
         x="25.243244"
         y="140.32599"
         ry="6.230617" />
      <g
         transform="translate(-960.7442,-216.61948)"
         id="g3005">
        <g
           style="font-style:normal;font-variant:normal;font-weight:normal;font-stretch:normal;letter-spacing:normal;word-spacing:normal;text-anchor:start;fill:none;stroke:#000000;stroke-linecap:butt;stroke-linejoin:miter;stroke-miterlimit:10.43299961;stroke-opacity:1;stroke-dasharray:none;stroke-dashoffset:0"
           id="content"
           transform="matrix(1.0629921,0,0,-1.0629921,-186.02362,789.27165)"
           xml:space="preserve"
           stroke-miterlimit="10.433"
           font-style="normal"
           font-variant="normal"
           font-weight="normal"
           font-stretch="normal"
           font-size-adjust="none"
           letter-spacing="normal"
           word-spacing="normal"><path
             style="fill:#000000;stroke-width:0"
             inkscape:connector-curvature="0"
             d="m 1186.7,363.33 0,0.95 -0.1,0.93 -0.1,0.92 -0.1,0.9 -0.2,0.89 -0.2,0.87 -0.3,0.85 -0.3,0.83 -0.3,0.8 -0.4,0.79 -0.4,0.77 -0.4,0.73 -0.5,0.72 -0.5,0.69 -0.5,0.66 -0.6,0.63 -0.6,0.6 -0.6,0.57 -0.6,0.54 -0.6,0.5 -0.7,0.48 -0.7,0.43 -0.7,0.4 -0.8,0.37 -0.7,0.32 -0.8,0.28 -0.8,0.25 -0.8,0.2 -0.8,0.16 -0.8,0.11 -0.8,0.07 -0.9,0.03 v -1.1 c 5.1,0 11.8,-4.53 11.8,-17.14 0,-12.7 -7,-16.84 -11.7,-16.84 h 0 c -5,0 -11.8,4.28 -11.8,16.84 0,12.8 6.9,17.14 11.7,17.14 v 1.1 c -8.9,0 -16.5,-7.97 -16.5,-18.24 0,-10.22 7.7,-17.98 16.5,-17.98 9.1,0 16.6,7.92 16.6,17.98 z"
             id="path3008" /><polygon
             style="fill:#000000;stroke-width:0"
             points="1177.8,361.58 1177.8,359.89 1179.1,359.89 1179.1,367.07 1177.8,367.07 1177.8,365.38 1162.5,365.38 1162.5,367.07 1161.3,367.07 1161.3,359.89 1162.5,359.89 1162.5,361.58 "
             id="polygon3010" /><path
             style="fill:#000000;stroke-width:0"
             inkscape:connector-curvature="0"
             d="m 1206,334.49 0,0.02 0,0.03 0,0.01 0,0.02 0,0.01 0,0.02 0,0.02 0,0.01 0,0.02 0,0.02 0,0.03 0,0.02 0,0.02 -0.1,0.03 0,0.03 0,0.03 0,0.04 -0.1,0.03 0,0.02 0,0.02 0,0.02 0,0.02 -0.1,0.02 0,0.03 0,0.02 0,0.02 0,0.03 -0.1,0.03 0,0.02 0,0.03 0,0.03 -0.1,0.03 0,0.03 0,0.03 -0.1,0.03 0,0.03 0,0.04 -0.1,0.03 0,0.04 0,0.04 -0.1,0.03 0,0.04 c -6.2,6.28 -7.8,15.69 -7.8,23.31 0,8.68 1.9,17.35 8,23.57 0.6,0.61 0.6,0.7 0.6,0.86 0,0.34 -0.1,0.48 -0.4,0.48 -0.5,0 -5,-3.37 -8,-9.7 -2.5,-5.49 -3.1,-11.02 -3.1,-15.21 0,-3.89 0.5,-9.9 3.3,-15.54 3,-6.13 7.3,-9.36 7.8,-9.36 0.3,0 0.4,0.14 0.4,0.5 z"
             id="path3012" /><path
             style="fill:#000000;stroke-width:0"
             inkscape:connector-curvature="0"
             d="m 1217.7,381.02 -7.2,-0.55 v -1.54 c 3.5,0 3.9,-0.35 3.9,-2.8 v -25.91 c 0,-2.23 -0.5,-2.23 -3.9,-2.23 v -1.55 c 1.7,0.05 4.3,0.16 5.6,0.16 1.2,0 3.6,-0.11 5.5,-0.16 v 1.55 c -3.4,0 -3.9,0 -3.9,2.23 z"
             id="path3014" /><path
             style="fill:#000000;stroke-width:0"
             inkscape:connector-curvature="0"
             d="m 1246.1,357.1 0,0.59 0,0.59 -0.1,0.58 -0.1,0.57 -0.1,0.56 -0.2,0.55 -0.1,0.54 -0.2,0.53 -0.3,0.51 -0.2,0.51 -0.3,0.48 -0.3,0.48 -0.3,0.46 -0.3,0.44 -0.3,0.42 -0.4,0.41 -0.4,0.38 -0.4,0.37 -0.4,0.35 -0.4,0.33 -0.5,0.3 -0.4,0.28 -0.5,0.26 -0.5,0.24 -0.5,0.21 -0.5,0.18 -0.5,0.16 -0.6,0.13 -0.5,0.11 -0.6,0.07 -0.5,0.05 -0.6,0.01 0,-1.09 c 2.2,0 4.3,-1.09 5.6,-3.23 1.3,-2.14 1.3,-5.04 1.3,-6.93 0,-1.79 0,-4.48 -1.1,-6.67 -1.1,-2.25 -3.3,-3.69 -5.8,-3.69 h 0 c -2.1,0 -4.3,1.05 -5.7,3.33 -1.2,2.21 -1.2,5.24 -1.2,7.03 0,1.94 0,4.63 1.2,6.83 1.4,2.28 3.7,3.33 5.7,3.33 l 0,1.09 c -6.2,0 -11,-5.42 -11,-11.65 0,-6.42 5.1,-11.21 11,-11.21 6,0 11,4.88 11,11.21 z"
             id="path3016" /><path
             style="fill:#000000;stroke-width:0"
             inkscape:connector-curvature="0"
             d="m 1252.9,353.07 0,0.02 0,0.02 0,0.04 0,0.03 0,0.05 0,0.04 0,0.05 0,0.06 0,0.06 0,0.06 0,0.06 0.1,0.07 0,0.08 0,0.07 0,0.08 0,0.08 0,0.08 0.1,0.09 0,0.08 0,0.09 0,0.09 0.1,0.09 0,0.1 0.1,0.09 0,0.09 0.1,0.1 0,0.1 0.1,0.09 0,0.1 0.1,0.09 0.1,0.1 0.1,0.09 c 1.9,-1.39 3.9,-1.55 4.9,-1.55 V 355 c -4.4,0 -4.4,4.99 -4.4,6.14 0,1.35 0.1,2.94 0.8,4.18 0.5,0.61 1.6,2 3.6,2 4.3,0 4.3,-4.99 4.3,-6.13 0,-1.34 0,-2.94 -0.8,-4.19 -0.4,-0.59 -1.5,-2 -3.5,-2 h 0 v -1.14 c 4.6,0 8.1,3.44 8.1,7.28 0,1.85 -0.8,3.69 -2.1,4.83 1.8,1.69 3.6,1.94 4.5,1.94 0.1,0 0.4,0 0.5,-0.05 -0.6,-0.2 -0.8,-0.75 -0.8,-1.34 0,-0.84 0.7,-1.44 1.4,-1.44 0.5,0 1.5,0.35 1.5,1.49 0,0.84 -0.6,2.43 -2.6,2.43 -1,0 -3.1,-0.29 -5.2,-2.32 -2.1,1.64 -4.2,1.78 -5.3,1.78 -4.6,0 -8.1,-3.44 -8.1,-7.27 0,-2.19 1.1,-4.09 2.4,-5.14 -0.7,-0.73 -1.6,-2.39 -1.6,-4.12 0,-1.55 0.7,-3.44 2.2,-4.44 -3,-0.85 -4.6,-2.99 -4.6,-4.99 0,-3.57 5,-6.32 11,-6.32 l 0.1,1.14 c -5,0 -8.5,2.54 -8.5,5.18 0,2.3 1.9,4.14 4.1,4.29 h 2.9 c 4.3,0 9.9,0 9.9,-4.29 0,-2.68 -3.5,-5.18 -8.4,-5.18 h 0 l -0.1,-1.14 c 5.9,0 11.1,2.54 11.1,6.42 0,1.75 -0.7,4.29 -3.2,5.69 -2.7,1.39 -5.6,1.39 -8.6,1.39 -1.3,0 -3.4,0 -3.7,0.04 -1.6,0.21 -2.7,1.75 -2.7,3.35 z"
             id="path3018" /><path
             style="fill:#000000;stroke-width:0"
             inkscape:connector-curvature="0"
             d="m 1299,349.24 0.1,-0.19 0,-0.19 0.1,-0.18 0.1,-0.17 0.1,-0.17 0.1,-0.17 0,-0.16 0.1,-0.16 0.2,-0.15 0.1,-0.14 0.1,-0.14 0.1,-0.14 0.1,-0.13 0.2,-0.12 0.1,-0.12 0.1,-0.11 0.2,-0.11 0.1,-0.1 0.2,-0.09 0.2,-0.09 0.1,-0.08 0.2,-0.07 0.2,-0.07 0.1,-0.06 0.2,-0.05 0.2,-0.05 0.2,-0.04 0.2,-0.04 0.2,-0.02 0.2,-0.02 0.2,-0.01 0.2,-0.01 c 1.7,0 2.8,1.15 3.7,2.74 0.8,1.8 1.4,4.84 1.4,4.94 0,0.5 -0.4,0.5 -0.6,0.5 -0.5,0 -0.5,-0.21 -0.7,-0.91 -0.6,-2.78 -1.6,-6.17 -3.7,-6.17 -1,0 -1.5,0.65 -1.5,2.3 0,1.09 0.6,3.43 1,5.17 l 1.4,5.39 c 0.1,0.75 0.6,2.64 0.8,3.39 0.3,1.14 0.8,3.03 0.8,3.33 0,0.9 -0.8,1.34 -1.5,1.34 -0.3,0 -1.5,-0.05 -1.9,-1.73 -1,-3.64 -3.2,-12.36 -3.8,-15 0,-0.21 -2,-4.19 -5.7,-4.19 -2.5,0 -3,2.25 -3,4.09 0,2.78 1.4,6.72 2.6,10.16 0.6,1.5 0.9,2.19 0.9,3.14 0,2.23 -1.6,4.08 -4.1,4.08 -4.7,0 -6.6,-7.22 -6.6,-7.67 0,-0.5 0.5,-0.5 0.6,-0.5 0.5,0 0.6,0.1 0.8,0.9 1.3,4.33 3.2,6.17 5.1,6.17 0.4,0 1.2,-0.04 1.2,-1.64 0,-1.2 -0.5,-2.64 -0.9,-3.39 -1.8,-4.94 -2.8,-8.01 -2.8,-10.45 0,-4.74 3.4,-5.99 6.1,-5.99 3.3,0 5.1,2.24 5.9,3.35 z"
             id="path3020" /><path
             style="fill:#000000;stroke-width:0"
             inkscape:connector-curvature="0"
             d="m 1324.5,358.89 0,0.38 0,0.38 0,0.39 0,0.41 0,0.84 -0.1,0.88 -0.1,0.92 -0.1,0.95 -0.1,0.98 -0.2,1 -0.2,1.02 -0.2,1.04 -0.3,1.05 -0.3,1.06 -0.3,1.06 -0.4,1.07 -0.2,0.53 -0.3,0.53 -0.2,0.53 -0.3,0.53 c -2.9,6.13 -7.2,9.36 -7.7,9.36 -0.3,0 -0.5,-0.19 -0.5,-0.48 0,-0.16 0,-0.25 0.9,-1.16 4.9,-4.92 7.8,-12.84 7.8,-23.27 0,-8.51 -1.9,-17.28 -8.1,-23.56 -0.6,-0.59 -0.6,-0.7 -0.6,-0.84 0,-0.3 0.2,-0.5 0.5,-0.5 0.5,0 5,3.39 7.9,9.72 2.5,5.47 3.1,11 3.1,15.18 z"
             id="path3022" /></g>      </g>
    </g>
    <g
       id="g3231"
       transform="translate(318,0)">
      <rect
         ry="6.230617"
         y="140.32599"
         x="25.243244"
         height="101.64726"
         width="290.17859"
         id="rect3233"
         style="fill:#c4cfd4;fill-opacity:1;stroke:#000000;stroke-width:3;stroke-miterlimit:4;stroke-opacity:1;stroke-dasharray:none" />
      <g
         id="g3235"
         transform="translate(-960.7442,-216.61948)">
        <g
           word-spacing="normal"
           letter-spacing="normal"
           font-size-adjust="none"
           font-stretch="normal"
           font-weight="normal"
           font-variant="normal"
           font-style="normal"
           stroke-miterlimit="10.433"
           xml:space="preserve"
           transform="matrix(1.0629921,0,0,-1.0629921,-186.02362,789.27165)"
           id="g3237"
           style="font-style:normal;font-variant:normal;font-weight:normal;font-stretch:normal;letter-spacing:normal;word-spacing:normal;text-anchor:start;fill:none;stroke:#000000;stroke-linecap:butt;stroke-linejoin:miter;stroke-miterlimit:10.43299961;stroke-opacity:1;stroke-dasharray:none;stroke-dashoffset:0"><path
             id="path3239"
             d="m 1186.7,363.33 0,0.95 -0.1,0.93 -0.1,0.92 -0.1,0.9 -0.2,0.89 -0.2,0.87 -0.3,0.85 -0.3,0.83 -0.3,0.8 -0.4,0.79 -0.4,0.77 -0.4,0.73 -0.5,0.72 -0.5,0.69 -0.5,0.66 -0.6,0.63 -0.6,0.6 -0.6,0.57 -0.6,0.54 -0.6,0.5 -0.7,0.48 -0.7,0.43 -0.7,0.4 -0.8,0.37 -0.7,0.32 -0.8,0.28 -0.8,0.25 -0.8,0.2 -0.8,0.16 -0.8,0.11 -0.8,0.07 -0.9,0.03 v -1.1 c 5.1,0 11.8,-4.53 11.8,-17.14 0,-12.7 -7,-16.84 -11.7,-16.84 h 0 c -5,0 -11.8,4.28 -11.8,16.84 0,12.8 6.9,17.14 11.7,17.14 v 1.1 c -8.9,0 -16.5,-7.97 -16.5,-18.24 0,-10.22 7.7,-17.98 16.5,-17.98 9.1,0 16.6,7.92 16.6,17.98 z"
             inkscape:connector-curvature="0"
             style="fill:#000000;stroke-width:0" /><polygon
             id="polygon3241"
             points="1162.5,367.07 1161.3,367.07 1161.3,359.89 1162.5,359.89 1162.5,361.58 1177.8,361.58 1177.8,359.89 1179.1,359.89 1179.1,367.07 1177.8,367.07 1177.8,365.38 1162.5,365.38 "
             style="fill:#000000;stroke-width:0" /><path
             id="path3243"
             d="m 1206,334.49 0,0.02 0,0.03 0,0.01 0,0.02 0,0.01 0,0.02 0,0.02 0,0.01 0,0.02 0,0.02 0,0.03 0,0.02 0,0.02 -0.1,0.03 0,0.03 0,0.03 0,0.04 -0.1,0.03 0,0.02 0,0.02 0,0.02 0,0.02 -0.1,0.02 0,0.03 0,0.02 0,0.02 0,0.03 -0.1,0.03 0,0.02 0,0.03 0,0.03 -0.1,0.03 0,0.03 0,0.03 -0.1,0.03 0,0.03 0,0.04 -0.1,0.03 0,0.04 0,0.04 -0.1,0.03 0,0.04 c -6.2,6.28 -7.8,15.69 -7.8,23.31 0,8.68 1.9,17.35 8,23.57 0.6,0.61 0.6,0.7 0.6,0.86 0,0.34 -0.1,0.48 -0.4,0.48 -0.5,0 -5,-3.37 -8,-9.7 -2.5,-5.49 -3.1,-11.02 -3.1,-15.21 0,-3.89 0.5,-9.9 3.3,-15.54 3,-6.13 7.3,-9.36 7.8,-9.36 0.3,0 0.4,0.14 0.4,0.5 z"
             inkscape:connector-curvature="0"
             style="fill:#000000;stroke-width:0" /><path
             id="path3245"
             d="m 1217.7,381.02 -7.2,-0.55 v -1.54 c 3.5,0 3.9,-0.35 3.9,-2.8 v -25.91 c 0,-2.23 -0.5,-2.23 -3.9,-2.23 v -1.55 c 1.7,0.05 4.3,0.16 5.6,0.16 1.2,0 3.6,-0.11 5.5,-0.16 v 1.55 c -3.4,0 -3.9,0 -3.9,2.23 z"
             inkscape:connector-curvature="0"
             style="fill:#000000;stroke-width:0" /><path
             id="path3247"
             d="m 1246.1,357.1 0,0.59 0,0.59 -0.1,0.58 -0.1,0.57 -0.1,0.56 -0.2,0.55 -0.1,0.54 -0.2,0.53 -0.3,0.51 -0.2,0.51 -0.3,0.48 -0.3,0.48 -0.3,0.46 -0.3,0.44 -0.3,0.42 -0.4,0.41 -0.4,0.38 -0.4,0.37 -0.4,0.35 -0.4,0.33 -0.5,0.3 -0.4,0.28 -0.5,0.26 -0.5,0.24 -0.5,0.21 -0.5,0.18 -0.5,0.16 -0.6,0.13 -0.5,0.11 -0.6,0.07 -0.5,0.05 -0.6,0.01 0,-1.09 c 2.2,0 4.3,-1.09 5.6,-3.23 1.3,-2.14 1.3,-5.04 1.3,-6.93 0,-1.79 0,-4.48 -1.1,-6.67 -1.1,-2.25 -3.3,-3.69 -5.8,-3.69 h 0 c -2.1,0 -4.3,1.05 -5.7,3.33 -1.2,2.21 -1.2,5.24 -1.2,7.03 0,1.94 0,4.63 1.2,6.83 1.4,2.28 3.7,3.33 5.7,3.33 l 0,1.09 c -6.2,0 -11,-5.42 -11,-11.65 0,-6.42 5.1,-11.21 11,-11.21 6,0 11,4.88 11,11.21 z"
             inkscape:connector-curvature="0"
             style="fill:#000000;stroke-width:0" /><path
             id="path3249"
             d="m 1252.9,353.07 0,0.02 0,0.02 0,0.04 0,0.03 0,0.05 0,0.04 0,0.05 0,0.06 0,0.06 0,0.06 0,0.06 0.1,0.07 0,0.08 0,0.07 0,0.08 0,0.08 0,0.08 0.1,0.09 0,0.08 0,0.09 0,0.09 0.1,0.09 0,0.1 0.1,0.09 0,0.09 0.1,0.1 0,0.1 0.1,0.09 0,0.1 0.1,0.09 0.1,0.1 0.1,0.09 c 1.9,-1.39 3.9,-1.55 4.9,-1.55 V 355 c -4.4,0 -4.4,4.99 -4.4,6.14 0,1.35 0.1,2.94 0.8,4.18 0.5,0.61 1.6,2 3.6,2 4.3,0 4.3,-4.99 4.3,-6.13 0,-1.34 0,-2.94 -0.8,-4.19 -0.4,-0.59 -1.5,-2 -3.5,-2 h 0 v -1.14 c 4.6,0 8.1,3.44 8.1,7.28 0,1.85 -0.8,3.69 -2.1,4.83 1.8,1.69 3.6,1.94 4.5,1.94 0.1,0 0.4,0 0.5,-0.05 -0.6,-0.2 -0.8,-0.75 -0.8,-1.34 0,-0.84 0.7,-1.44 1.4,-1.44 0.5,0 1.5,0.35 1.5,1.49 0,0.84 -0.6,2.43 -2.6,2.43 -1,0 -3.1,-0.29 -5.2,-2.32 -2.1,1.64 -4.2,1.78 -5.3,1.78 -4.6,0 -8.1,-3.44 -8.1,-7.27 0,-2.19 1.1,-4.09 2.4,-5.14 -0.7,-0.73 -1.6,-2.39 -1.6,-4.12 0,-1.55 0.7,-3.44 2.2,-4.44 -3,-0.85 -4.6,-2.99 -4.6,-4.99 0,-3.57 5,-6.32 11,-6.32 l 0.1,1.14 c -5,0 -8.5,2.54 -8.5,5.18 0,2.3 1.9,4.14 4.1,4.29 h 2.9 c 4.3,0 9.9,0 9.9,-4.29 0,-2.68 -3.5,-5.18 -8.4,-5.18 h 0 l -0.1,-1.14 c 5.9,0 11.1,2.54 11.1,6.42 0,1.75 -0.7,4.29 -3.2,5.69 -2.7,1.39 -5.6,1.39 -8.6,1.39 -1.3,0 -3.4,0 -3.7,0.04 -1.6,0.21 -2.7,1.75 -2.7,3.35 z"
             inkscape:connector-curvature="0"
             style="fill:#000000;stroke-width:0" /><path
             id="path3251"
             d="m 1299,349.24 0.1,-0.19 0,-0.19 0.1,-0.18 0.1,-0.17 0.1,-0.17 0.1,-0.17 0,-0.16 0.1,-0.16 0.2,-0.15 0.1,-0.14 0.1,-0.14 0.1,-0.14 0.1,-0.13 0.2,-0.12 0.1,-0.12 0.1,-0.11 0.2,-0.11 0.1,-0.1 0.2,-0.09 0.2,-0.09 0.1,-0.08 0.2,-0.07 0.2,-0.07 0.1,-0.06 0.2,-0.05 0.2,-0.05 0.2,-0.04 0.2,-0.04 0.2,-0.02 0.2,-0.02 0.2,-0.01 0.2,-0.01 c 1.7,0 2.8,1.15 3.7,2.74 0.8,1.8 1.4,4.84 1.4,4.94 0,0.5 -0.4,0.5 -0.6,0.5 -0.5,0 -0.5,-0.21 -0.7,-0.91 -0.6,-2.78 -1.6,-6.17 -3.7,-6.17 -1,0 -1.5,0.65 -1.5,2.3 0,1.09 0.6,3.43 1,5.17 l 1.4,5.39 c 0.1,0.75 0.6,2.64 0.8,3.39 0.3,1.14 0.8,3.03 0.8,3.33 0,0.9 -0.8,1.34 -1.5,1.34 -0.3,0 -1.5,-0.05 -1.9,-1.73 -1,-3.64 -3.2,-12.36 -3.8,-15 0,-0.21 -2,-4.19 -5.7,-4.19 -2.5,0 -3,2.25 -3,4.09 0,2.78 1.4,6.72 2.6,10.16 0.6,1.5 0.9,2.19 0.9,3.14 0,2.23 -1.6,4.08 -4.1,4.08 -4.7,0 -6.6,-7.22 -6.6,-7.67 0,-0.5 0.5,-0.5 0.6,-0.5 0.5,0 0.6,0.1 0.8,0.9 1.3,4.33 3.2,6.17 5.1,6.17 0.4,0 1.2,-0.04 1.2,-1.64 0,-1.2 -0.5,-2.64 -0.9,-3.39 -1.8,-4.94 -2.8,-8.01 -2.8,-10.45 0,-4.74 3.4,-5.99 6.1,-5.99 3.3,0 5.1,2.24 5.9,3.35 z"
             inkscape:connector-curvature="0"
             style="fill:#000000;stroke-width:0" /><path
             id="path3253"
             d="m 1324.5,358.89 0,0.38 0,0.38 0,0.39 0,0.41 0,0.84 -0.1,0.88 -0.1,0.92 -0.1,0.95 -0.1,0.98 -0.2,1 -0.2,1.02 -0.2,1.04 -0.3,1.05 -0.3,1.06 -0.3,1.06 -0.4,1.07 -0.2,0.53 -0.3,0.53 -0.2,0.53 -0.3,0.53 c -2.9,6.13 -7.2,9.36 -7.7,9.36 -0.3,0 -0.5,-0.19 -0.5,-0.48 0,-0.16 0,-0.25 0.9,-1.16 4.9,-4.92 7.8,-12.84 7.8,-23.27 0,-8.51 -1.9,-17.28 -8.1,-23.56 -0.6,-0.59 -0.6,-0.7 -0.6,-0.84 0,-0.3 0.2,-0.5 0.5,-0.5 0.5,0 5,3.39 7.9,9.72 2.5,5.47 3.1,11 3.1,15.18 z"
             inkscape:connector-curvature="0"
             style="fill:#000000;stroke-width:0" /></g>      </g>
    </g>
    <g
       transform="translate(784,0)"
       id="g3255">
      <rect
         style="fill:#c4cfd4;fill-opacity:1;stroke:#000000;stroke-width:3;stroke-miterlimit:4;stroke-opacity:1;stroke-dasharray:none"
         id="rect3257"
         width="290.17859"
         height="101.64726"
         x="25.243244"
         y="140.32599"
         ry="6.230617" />
      <g
         transform="translate(-960.7442,-216.61948)"
         id="g3259">
        <g
           style="font-style:normal;font-variant:normal;font-weight:normal;font-stretch:normal;letter-spacing:normal;word-spacing:normal;text-anchor:start;fill:none;stroke:#000000;stroke-linecap:butt;stroke-linejoin:miter;stroke-miterlimit:10.43299961;stroke-opacity:1;stroke-dasharray:none;stroke-dashoffset:0"
           id="g3261"
           transform="matrix(1.0629921,0,0,-1.0629921,-186.02362,789.27165)"
           xml:space="preserve"
           stroke-miterlimit="10.433"
           font-style="normal"
           font-variant="normal"
           font-weight="normal"
           font-stretch="normal"
           font-size-adjust="none"
           letter-spacing="normal"
           word-spacing="normal"><path
             style="fill:#000000;stroke-width:0"
             inkscape:connector-curvature="0"
             d="m 1186.7,363.33 0,0.95 -0.1,0.93 -0.1,0.92 -0.1,0.9 -0.2,0.89 -0.2,0.87 -0.3,0.85 -0.3,0.83 -0.3,0.8 -0.4,0.79 -0.4,0.77 -0.4,0.73 -0.5,0.72 -0.5,0.69 -0.5,0.66 -0.6,0.63 -0.6,0.6 -0.6,0.57 -0.6,0.54 -0.6,0.5 -0.7,0.48 -0.7,0.43 -0.7,0.4 -0.8,0.37 -0.7,0.32 -0.8,0.28 -0.8,0.25 -0.8,0.2 -0.8,0.16 -0.8,0.11 -0.8,0.07 -0.9,0.03 v -1.1 c 5.1,0 11.8,-4.53 11.8,-17.14 0,-12.7 -7,-16.84 -11.7,-16.84 h 0 c -5,0 -11.8,4.28 -11.8,16.84 0,12.8 6.9,17.14 11.7,17.14 v 1.1 c -8.9,0 -16.5,-7.97 -16.5,-18.24 0,-10.22 7.7,-17.98 16.5,-17.98 9.1,0 16.6,7.92 16.6,17.98 z"
             id="path3263" /><polygon
             style="fill:#000000;stroke-width:0"
             points="1177.8,361.58 1177.8,359.89 1179.1,359.89 1179.1,367.07 1177.8,367.07 1177.8,365.38 1162.5,365.38 1162.5,367.07 1161.3,367.07 1161.3,359.89 1162.5,359.89 1162.5,361.58 "
             id="polygon3265" /><path
             style="fill:#000000;stroke-width:0"
             inkscape:connector-curvature="0"
             d="m 1206,334.49 0,0.02 0,0.03 0,0.01 0,0.02 0,0.01 0,0.02 0,0.02 0,0.01 0,0.02 0,0.02 0,0.03 0,0.02 0,0.02 -0.1,0.03 0,0.03 0,0.03 0,0.04 -0.1,0.03 0,0.02 0,0.02 0,0.02 0,0.02 -0.1,0.02 0,0.03 0,0.02 0,0.02 0,0.03 -0.1,0.03 0,0.02 0,0.03 0,0.03 -0.1,0.03 0,0.03 0,0.03 -0.1,0.03 0,0.03 0,0.04 -0.1,0.03 0,0.04 0,0.04 -0.1,0.03 0,0.04 c -6.2,6.28 -7.8,15.69 -7.8,23.31 0,8.68 1.9,17.35 8,23.57 0.6,0.61 0.6,0.7 0.6,0.86 0,0.34 -0.1,0.48 -0.4,0.48 -0.5,0 -5,-3.37 -8,-9.7 -2.5,-5.49 -3.1,-11.02 -3.1,-15.21 0,-3.89 0.5,-9.9 3.3,-15.54 3,-6.13 7.3,-9.36 7.8,-9.36 0.3,0 0.4,0.14 0.4,0.5 z"
             id="path3267" /><path
             style="fill:#000000;stroke-width:0"
             inkscape:connector-curvature="0"
             d="m 1217.7,381.02 -7.2,-0.55 v -1.54 c 3.5,0 3.9,-0.35 3.9,-2.8 v -25.91 c 0,-2.23 -0.5,-2.23 -3.9,-2.23 v -1.55 c 1.7,0.05 4.3,0.16 5.6,0.16 1.2,0 3.6,-0.11 5.5,-0.16 v 1.55 c -3.4,0 -3.9,0 -3.9,2.23 z"
             id="path3269" /><path
             style="fill:#000000;stroke-width:0"
             inkscape:connector-curvature="0"
             d="m 1246.1,357.1 0,0.59 0,0.59 -0.1,0.58 -0.1,0.57 -0.1,0.56 -0.2,0.55 -0.1,0.54 -0.2,0.53 -0.3,0.51 -0.2,0.51 -0.3,0.48 -0.3,0.48 -0.3,0.46 -0.3,0.44 -0.3,0.42 -0.4,0.41 -0.4,0.38 -0.4,0.37 -0.4,0.35 -0.4,0.33 -0.5,0.3 -0.4,0.28 -0.5,0.26 -0.5,0.24 -0.5,0.21 -0.5,0.18 -0.5,0.16 -0.6,0.13 -0.5,0.11 -0.6,0.07 -0.5,0.05 -0.6,0.01 0,-1.09 c 2.2,0 4.3,-1.09 5.6,-3.23 1.3,-2.14 1.3,-5.04 1.3,-6.93 0,-1.79 0,-4.48 -1.1,-6.67 -1.1,-2.25 -3.3,-3.69 -5.8,-3.69 h 0 c -2.1,0 -4.3,1.05 -5.7,3.33 -1.2,2.21 -1.2,5.24 -1.2,7.03 0,1.94 0,4.63 1.2,6.83 1.4,2.28 3.7,3.33 5.7,3.33 l 0,1.09 c -6.2,0 -11,-5.42 -11,-11.65 0,-6.42 5.1,-11.21 11,-11.21 6,0 11,4.88 11,11.21 z"
             id="path3271" /><path
             style="fill:#000000;stroke-width:0"
             inkscape:connector-curvature="0"
             d="m 1252.9,353.07 0,0.02 0,0.02 0,0.04 0,0.03 0,0.05 0,0.04 0,0.05 0,0.06 0,0.06 0,0.06 0,0.06 0.1,0.07 0,0.08 0,0.07 0,0.08 0,0.08 0,0.08 0.1,0.09 0,0.08 0,0.09 0,0.09 0.1,0.09 0,0.1 0.1,0.09 0,0.09 0.1,0.1 0,0.1 0.1,0.09 0,0.1 0.1,0.09 0.1,0.1 0.1,0.09 c 1.9,-1.39 3.9,-1.55 4.9,-1.55 V 355 c -4.4,0 -4.4,4.99 -4.4,6.14 0,1.35 0.1,2.94 0.8,4.18 0.5,0.61 1.6,2 3.6,2 4.3,0 4.3,-4.99 4.3,-6.13 0,-1.34 0,-2.94 -0.8,-4.19 -0.4,-0.59 -1.5,-2 -3.5,-2 h 0 v -1.14 c 4.6,0 8.1,3.44 8.1,7.28 0,1.85 -0.8,3.69 -2.1,4.83 1.8,1.69 3.6,1.94 4.5,1.94 0.1,0 0.4,0 0.5,-0.05 -0.6,-0.2 -0.8,-0.75 -0.8,-1.34 0,-0.84 0.7,-1.44 1.4,-1.44 0.5,0 1.5,0.35 1.5,1.49 0,0.84 -0.6,2.43 -2.6,2.43 -1,0 -3.1,-0.29 -5.2,-2.32 -2.1,1.64 -4.2,1.78 -5.3,1.78 -4.6,0 -8.1,-3.44 -8.1,-7.27 0,-2.19 1.1,-4.09 2.4,-5.14 -0.7,-0.73 -1.6,-2.39 -1.6,-4.12 0,-1.55 0.7,-3.44 2.2,-4.44 -3,-0.85 -4.6,-2.99 -4.6,-4.99 0,-3.57 5,-6.32 11,-6.32 l 0.1,1.14 c -5,0 -8.5,2.54 -8.5,5.18 0,2.3 1.9,4.14 4.1,4.29 h 2.9 c 4.3,0 9.9,0 9.9,-4.29 0,-2.68 -3.5,-5.18 -8.4,-5.18 h 0 l -0.1,-1.14 c 5.9,0 11.1,2.54 11.1,6.42 0,1.75 -0.7,4.29 -3.2,5.69 -2.7,1.39 -5.6,1.39 -8.6,1.39 -1.3,0 -3.4,0 -3.7,0.04 -1.6,0.21 -2.7,1.75 -2.7,3.35 z"
             id="path3273" /><path
             style="fill:#000000;stroke-width:0"
             inkscape:connector-curvature="0"
             d="m 1299,349.24 0.1,-0.19 0,-0.19 0.1,-0.18 0.1,-0.17 0.1,-0.17 0.1,-0.17 0,-0.16 0.1,-0.16 0.2,-0.15 0.1,-0.14 0.1,-0.14 0.1,-0.14 0.1,-0.13 0.2,-0.12 0.1,-0.12 0.1,-0.11 0.2,-0.11 0.1,-0.1 0.2,-0.09 0.2,-0.09 0.1,-0.08 0.2,-0.07 0.2,-0.07 0.1,-0.06 0.2,-0.05 0.2,-0.05 0.2,-0.04 0.2,-0.04 0.2,-0.02 0.2,-0.02 0.2,-0.01 0.2,-0.01 c 1.7,0 2.8,1.15 3.7,2.74 0.8,1.8 1.4,4.84 1.4,4.94 0,0.5 -0.4,0.5 -0.6,0.5 -0.5,0 -0.5,-0.21 -0.7,-0.91 -0.6,-2.78 -1.6,-6.17 -3.7,-6.17 -1,0 -1.5,0.65 -1.5,2.3 0,1.09 0.6,3.43 1,5.17 l 1.4,5.39 c 0.1,0.75 0.6,2.64 0.8,3.39 0.3,1.14 0.8,3.03 0.8,3.33 0,0.9 -0.8,1.34 -1.5,1.34 -0.3,0 -1.5,-0.05 -1.9,-1.73 -1,-3.64 -3.2,-12.36 -3.8,-15 0,-0.21 -2,-4.19 -5.7,-4.19 -2.5,0 -3,2.25 -3,4.09 0,2.78 1.4,6.72 2.6,10.16 0.6,1.5 0.9,2.19 0.9,3.14 0,2.23 -1.6,4.08 -4.1,4.08 -4.7,0 -6.6,-7.22 -6.6,-7.67 0,-0.5 0.5,-0.5 0.6,-0.5 0.5,0 0.6,0.1 0.8,0.9 1.3,4.33 3.2,6.17 5.1,6.17 0.4,0 1.2,-0.04 1.2,-1.64 0,-1.2 -0.5,-2.64 -0.9,-3.39 -1.8,-4.94 -2.8,-8.01 -2.8,-10.45 0,-4.74 3.4,-5.99 6.1,-5.99 3.3,0 5.1,2.24 5.9,3.35 z"
             id="path3275" /><path
             style="fill:#000000;stroke-width:0"
             inkscape:connector-curvature="0"
             d="m 1324.5,358.89 0,0.38 0,0.38 0,0.39 0,0.41 0,0.84 -0.1,0.88 -0.1,0.92 -0.1,0.95 -0.1,0.98 -0.2,1 -0.2,1.02 -0.2,1.04 -0.3,1.05 -0.3,1.06 -0.3,1.06 -0.4,1.07 -0.2,0.53 -0.3,0.53 -0.2,0.53 -0.3,0.53 c -2.9,6.13 -7.2,9.36 -7.7,9.36 -0.3,0 -0.5,-0.19 -0.5,-0.48 0,-0.16 0,-0.25 0.9,-1.16 4.9,-4.92 7.8,-12.84 7.8,-23.27 0,-8.51 -1.9,-17.28 -8.1,-23.56 -0.6,-0.59 -0.6,-0.7 -0.6,-0.84 0,-0.3 0.2,-0.5 0.5,-0.5 0.5,0 5,3.39 7.9,9.72 2.5,5.47 3.1,11 3.1,15.18 z"
             id="path3277" /></g>      </g>
    </g>
    <g
       transform="translate(-420.57143,-225.14286)"
       id="g3338">
      <g
         style="font-style:normal;font-variant:normal;font-weight:normal;font-stretch:normal;letter-spacing:normal;word-spacing:normal;text-anchor:start;fill:none;stroke:#000000;stroke-linecap:butt;stroke-linejoin:miter;stroke-miterlimit:10.43299961;stroke-opacity:1;stroke-dasharray:none;stroke-dashoffset:0"
         id="g3340"
         transform="matrix(1.0629921,0,0,-1.0629921,-186.02362,789.27165)"
         xml:space="preserve"
         stroke-miterlimit="10.433"
         font-style="normal"
         font-variant="normal"
         font-weight="normal"
         font-stretch="normal"
         font-size-adjust="none"
         letter-spacing="normal"
         word-spacing="normal"><path
           style="fill:#000000;stroke-width:0"
           inkscape:connector-curvature="0"
           d="m 1220.6,349.08 0,0.14 0,0.13 0,0.13 -0.1,0.13 0,0.13 0,0.12 -0.1,0.12 0,0.12 -0.1,0.12 0,0.11 -0.1,0.11 -0.1,0.11 0,0.1 -0.1,0.1 -0.1,0.1 -0.1,0.09 -0.1,0.09 -0.1,0.08 -0.1,0.08 -0.1,0.08 -0.1,0.07 -0.1,0.06 -0.1,0.06 -0.1,0.05 -0.1,0.05 -0.2,0.04 -0.1,0.04 -0.1,0.03 -0.1,0.02 -0.2,0.02 -0.1,0.01 -0.1,0 c -1.5,0 -2.7,-1.2 -2.7,-2.64 0,-1.44 1.2,-2.64 2.7,-2.64 1.4,0 2.6,1.2 2.6,2.64 z"
           id="path3342" /><path
           style="fill:#000000;stroke-width:0"
           inkscape:connector-curvature="0"
           d="m 1242.7,349.08 0,0.14 0,0.13 -0.1,0.13 0,0.13 0,0.13 0,0.12 -0.1,0.12 0,0.12 -0.1,0.12 0,0.11 -0.1,0.11 -0.1,0.11 0,0.1 -0.1,0.1 -0.1,0.1 -0.1,0.09 -0.1,0.09 -0.1,0.08 -0.1,0.08 -0.1,0.08 -0.1,0.07 -0.1,0.06 -0.1,0.06 -0.1,0.05 -0.2,0.05 -0.1,0.04 -0.1,0.04 -0.1,0.03 -0.2,0.02 -0.1,0.02 -0.1,0.01 -0.2,0 c -1.4,0 -2.6,-1.2 -2.6,-2.64 0,-1.44 1.2,-2.64 2.6,-2.64 1.5,0 2.7,1.2 2.7,2.64 z"
           id="path3344" /><path
           style="fill:#000000;stroke-width:0"
           inkscape:connector-curvature="0"
           d="m 1264.8,349.08 0,0.14 -0.1,0.13 0,0.13 0,0.13 0,0.13 -0.1,0.12 0,0.12 0,0.12 -0.1,0.12 -0.1,0.11 0,0.11 -0.1,0.11 -0.1,0.1 0,0.1 -0.1,0.1 -0.1,0.09 -0.1,0.09 -0.1,0.08 -0.1,0.08 -0.1,0.08 -0.1,0.07 -0.1,0.06 -0.1,0.06 -0.2,0.05 -0.1,0.05 -0.1,0.04 -0.1,0.04 -0.2,0.03 -0.1,0.02 -0.1,0.02 -0.1,0.01 -0.2,0 c -1.4,0 -2.6,-1.2 -2.6,-2.64 0,-1.44 1.2,-2.64 2.6,-2.64 1.5,0 2.7,1.2 2.7,2.64 z"
           id="path3346" /></g>    </g>
    <path
       inkscape:connector-curvature="0"
       id="path4178"
       d="m 88.571429,-104.20925 0,180.000004"
       style="opacity:0.46209896;fill:none;stroke:#000000;stroke-width:5;stroke-linecap:butt;stroke-linejoin:miter;stroke-miterlimit:4;stroke-opacity:1;stroke-dasharray:none" />
    <path
       style="opacity:0.46209896;fill:none;stroke:#000000;stroke-width:5;stroke-linecap:butt;stroke-linejoin:miter;stroke-miterlimit:4;stroke-opacity:1;stroke-dasharray:none"
       d="m 215.32143,-104.20925 0,180.000004"
       id="path4180"
       inkscape:connector-curvature="0" />
    <path
       inkscape:connector-curvature="0"
       id="path4182"
       d="m 344.07141,-104.20925 0,180.000004"
       style="opacity:0.46209896;fill:none;stroke:#000000;stroke-width:5;stroke-linecap:butt;stroke-linejoin:miter;stroke-miterlimit:4;stroke-opacity:1;stroke-dasharray:none" />
    <path
       style="opacity:0.46209896;fill:none;stroke:#000000;stroke-width:5;stroke-linecap:butt;stroke-linejoin:miter;stroke-miterlimit:4;stroke-opacity:1;stroke-dasharray:none"
       d="m 905.82143,-104.20925 0,180.000004"
       id="path4184"
       inkscape:connector-curvature="0" />
    <path
       inkscape:connector-curvature="0"
       id="path4186"
       d="m 789.0714,-104.20925 0,180.000004"
       style="opacity:0.46209896;fill:none;stroke:#000000;stroke-width:5;stroke-linecap:butt;stroke-linejoin:miter;stroke-miterlimit:4;stroke-opacity:1;stroke-dasharray:none" />
    <path
       inkscape:connector-curvature="0"
       id="path4194"
       d="m 1022.5714,-104.20925 0,180.000004"
       style="opacity:0.46209896;fill:none;stroke:#000000;stroke-width:5;stroke-linecap:butt;stroke-linejoin:miter;stroke-miterlimit:4;stroke-opacity:1;stroke-dasharray:none" />
    <path
       sodipodi:nodetypes="cc"
       inkscape:connector-curvature="0"
       id="path4196"
       d="M 147.14286,-10.494961 120,132.36218"
       style="fill:none;stroke:#000000;stroke-width:5;stroke-linecap:butt;stroke-linejoin:miter;stroke-miterlimit:4;stroke-opacity:1;stroke-dasharray:none;marker-start:url(#DotM);marker-end:url(#Arrow2Mend)" />
    <path
       style="fill:none;stroke:#000000;stroke-width:5;stroke-linecap:butt;stroke-linejoin:miter;stroke-miterlimit:4;stroke-opacity:1;stroke-dasharray:none;marker-start:url(#DotM);marker-end:url(#Arrow2Mend)"
       d="M 274.85715,-11.923532 350.57143,129.50504"
       id="path5206"
       inkscape:connector-curvature="0"
       sodipodi:nodetypes="cc" />
    <path
       sodipodi:nodetypes="cc"
       inkscape:connector-curvature="0"
       id="path5208"
       d="M 963.42857,-14.780675 999.14281,130.93362"
       style="fill:none;stroke:#000000;stroke-width:5;stroke-linecap:butt;stroke-linejoin:miter;stroke-miterlimit:4;stroke-opacity:1;stroke-dasharray:none;marker-start:url(#DotM);marker-end:url(#Arrow2Mend)" />
    <g
       id="g5310"
       transform="translate(-565.71428,-440)">
      <g
         word-spacing="normal"
         letter-spacing="normal"
         font-size-adjust="none"
         font-stretch="normal"
         font-weight="normal"
         font-variant="normal"
         font-style="normal"
         stroke-miterlimit="10.433"
         xml:space="preserve"
         transform="matrix(1.0629921,0,0,-1.0629921,-186.02362,789.27165)"
         id="g5312"
         style="font-style:normal;font-variant:normal;font-weight:normal;font-stretch:normal;letter-spacing:normal;word-spacing:normal;text-anchor:start;fill:none;stroke:#000000;stroke-linecap:butt;stroke-linejoin:miter;stroke-miterlimit:10.43299961;stroke-opacity:1;stroke-dasharray:none;stroke-dashoffset:0"><path
           id="path5314"
           d="m 1159.2,345.81 0,0.95 0,0.93 -0.2,0.92 -0.1,0.9 -0.2,0.89 -0.2,0.87 -0.3,0.85 -0.3,0.83 -0.3,0.81 -0.4,0.78 -0.4,0.77 -0.4,0.74 -0.5,0.71 -0.5,0.69 -0.5,0.66 -0.6,0.63 -0.5,0.6 -0.6,0.57 -0.7,0.54 -0.6,0.51 -0.7,0.47 -0.7,0.43 -0.7,0.4 -0.7,0.37 -0.8,0.32 -0.8,0.28 -0.7,0.25 -0.8,0.2 -0.8,0.16 -0.9,0.11 -0.8,0.07 -0.8,0.03 v -1.1 c 5,0 11.7,-4.53 11.7,-17.14 0,-12.7 -7,-16.84 -11.7,-16.84 h 0 c -4.9,0 -11.8,4.28 -11.8,16.84 0,12.8 7,17.14 11.8,17.14 v 1.1 c -9,0 -16.6,-7.97 -16.6,-18.24 0,-10.22 7.7,-17.98 16.6,-17.98 9,0 16.5,7.92 16.5,17.98 z"
           inkscape:connector-curvature="0"
           style="fill:#000000;stroke-width:0" /><polygon
           id="polygon5316"
           points="1135,344.06 1150.3,344.06 1150.3,342.38 1151.6,342.38 1151.6,349.55 1150.3,349.55 1150.3,347.86 1135,347.86 1135,349.55 1133.8,349.55 1133.8,342.38 1135,342.38 "
           style="fill:#000000;stroke-width:0" /><path
           id="path5318"
           d="m 1205.2,282.21 0,0.02 0,0.01 0,0.02 0,0.02 0,0.01 0,0.02 0,0.02 0,0.01 0,0.02 0,0.01 0,0.01 0,0.02 0,0.01 0,0.02 0,0.01 0,0.01 0,0.03 -0.1,0.02 0,0.03 0,0.02 0,0.03 0,0.02 0,0.03 -0.1,0.02 0,0.01 c -1.8,1.84 -5.1,5.17 -8.5,10.56 -8,12.85 -11.6,29.05 -11.6,48.22 0,13.41 1.8,30.69 10,45.55 3.9,7.06 8,11.15 10.2,13.34 0.1,0.16 0.1,0.25 0.1,0.41 0,0.5 -0.3,0.5 -1,0.5 -0.7,0 -0.8,0 -1.6,-0.75 -16.7,-15.2 -21.9,-38.02 -21.9,-59 0,-19.58 4.5,-39.3 17.2,-54.2 1,-1.15 2.9,-3.19 4.9,-4.99 0.6,-0.59 0.7,-0.59 1.4,-0.59 0.7,0 1,0 1,0.5 z"
           inkscape:connector-curvature="0"
           style="fill:#000000;stroke-width:0" /><path
           id="path5320"
           d="m 1266.9,365.44 0,-0.19 0.1,-0.19 0.1,-0.18 0,-0.17 0.1,-0.17 0.1,-0.17 0.1,-0.16 0.1,-0.16 0.1,-0.15 0.1,-0.14 0.1,-0.14 0.2,-0.14 0.1,-0.13 0.1,-0.12 0.2,-0.12 0.1,-0.11 0.2,-0.11 0.1,-0.1 0.2,-0.09 0.1,-0.09 0.2,-0.08 0.2,-0.07 0.1,-0.07 0.2,-0.06 0.2,-0.06 0.2,-0.04 0.1,-0.04 0.2,-0.04 0.2,-0.02 0.2,-0.02 0.2,-0.01 0.2,-0.01 c 1.8,0 2.9,1.14 3.7,2.74 0.8,1.79 1.5,4.84 1.5,4.94 0,0.5 -0.4,0.5 -0.6,0.5 -0.5,0 -0.6,-0.21 -0.7,-0.91 -0.7,-2.78 -1.6,-6.17 -3.7,-6.17 -1.1,0 -1.6,0.65 -1.6,2.29 0,1.1 0.6,3.44 1,5.18 l 1.4,5.39 c 0.2,0.75 0.7,2.64 0.9,3.39 0.2,1.14 0.7,3.03 0.7,3.33 0,0.9 -0.7,1.34 -1.4,1.34 -0.3,0 -1.6,-0.05 -2,-1.73 -0.9,-3.65 -3.1,-12.36 -3.7,-15 -0.1,-0.21 -2.1,-4.19 -5.7,-4.19 -2.6,0 -3.1,2.25 -3.1,4.09 0,2.78 1.4,6.72 2.7,10.16 0.6,1.5 0.9,2.18 0.9,3.14 0,2.23 -1.6,4.08 -4.1,4.08 -4.8,0 -6.6,-7.22 -6.6,-7.68 0,-0.5 0.5,-0.5 0.6,-0.5 0.5,0 0.5,0.11 0.8,0.91 1.2,4.33 3.1,6.17 5,6.17 0.5,0 1.3,-0.04 1.3,-1.64 0,-1.2 -0.6,-2.64 -0.9,-3.39 -1.8,-4.94 -2.9,-8.01 -2.9,-10.45 0,-4.74 3.4,-5.99 6.2,-5.99 3.2,0 5,2.24 5.9,3.35 z"
           inkscape:connector-curvature="0"
           style="fill:#000000;stroke-width:0" /><polyline
           id="polyline5322"
           points="1213,340 1314.3,340 1314.3,342.04 1213,342.04 "
           style="fill:#000000;fill-rule:nonzero;stroke-width:0" /><path
           id="path5324"
           d="m 1221.9,329.42 -7.2,-0.55 v -1.55 c 3.5,0 3.9,-0.34 3.9,-2.79 v -25.91 c 0,-2.23 -0.5,-2.23 -3.9,-2.23 v -1.55 c 1.7,0.05 4.3,0.16 5.5,0.16 1.3,0 3.7,-0.11 5.6,-0.16 v 1.55 c -3.4,0 -3.9,0 -3.9,2.23 z"
           inkscape:connector-curvature="0"
           style="fill:#000000;stroke-width:0" /><path
           id="path5326"
           d="m 1250.3,305.5 0,0.59 0,0.59 -0.1,0.58 -0.1,0.57 -0.1,0.56 -0.2,0.55 -0.1,0.54 -0.2,0.53 -0.3,0.51 -0.2,0.5 -0.3,0.49 -0.3,0.48 -0.3,0.45 -0.3,0.44 -0.3,0.43 -0.4,0.4 -0.4,0.39 -0.4,0.37 -0.4,0.35 -0.4,0.32 -0.5,0.31 -0.4,0.28 -0.5,0.26 -0.5,0.24 -0.5,0.21 -0.5,0.18 -0.5,0.16 -0.6,0.13 -0.5,0.11 -0.6,0.07 -0.5,0.05 -0.6,0.01 0,-1.09 c 2.2,0 4.3,-1.1 5.6,-3.24 1.3,-2.14 1.3,-5.03 1.3,-6.92 0,-1.79 0,-4.48 -1.1,-6.67 -1.1,-2.25 -3.3,-3.69 -5.8,-3.69 h 0 c -2.1,0 -4.3,1.05 -5.6,3.33 -1.3,2.2 -1.3,5.24 -1.3,7.03 0,1.94 0,4.63 1.2,6.83 1.3,2.28 3.7,3.33 5.7,3.33 l 0,1.09 c -6.2,0 -11,-5.42 -11,-11.65 0,-6.43 5.1,-11.21 11,-11.21 6,0 11,4.88 11,11.21 z"
           inkscape:connector-curvature="0"
           style="fill:#000000;stroke-width:0" /><path
           id="path5328"
           d="m 1257.1,301.46 0,0.03 0,0.02 0,0.04 0,0.03 0,0.04 0,0.05 0,0.05 0,0.06 0,0.05 0,0.07 0,0.06 0.1,0.07 0,0.07 0,0.08 0,0.08 0,0.08 0,0.08 0.1,0.09 0,0.08 0,0.09 0.1,0.09 0,0.09 0,0.1 0.1,0.09 0,0.09 0.1,0.1 0,0.09 0.1,0.1 0,0.09 0.1,0.1 0.1,0.09 0.1,0.1 c 1.9,-1.39 3.9,-1.55 4.9,-1.55 v 1.14 c -4.3,0 -4.3,4.99 -4.3,6.14 0,1.35 0,2.94 0.7,4.17 0.5,0.61 1.6,2 3.6,2 4.3,0 4.3,-4.98 4.3,-6.12 0,-1.34 0,-2.94 -0.8,-4.19 -0.4,-0.59 -1.5,-2 -3.5,-2 h 0 v -1.14 c 4.6,0 8.1,3.44 8.1,7.28 0,1.85 -0.8,3.69 -2.1,4.83 1.8,1.69 3.6,1.94 4.5,1.94 0.1,0 0.4,0 0.5,-0.05 -0.6,-0.2 -0.8,-0.75 -0.8,-1.34 0,-0.85 0.7,-1.44 1.5,-1.44 0.5,0 1.4,0.34 1.4,1.48 0,0.85 -0.6,2.44 -2.5,2.44 -1,0 -3.2,-0.29 -5.3,-2.33 -2.1,1.64 -4.2,1.79 -5.3,1.79 -4.7,0 -8.1,-3.44 -8.1,-7.27 0,-2.19 1.1,-4.09 2.4,-5.14 -0.7,-0.74 -1.6,-2.39 -1.6,-4.13 0,-1.54 0.7,-3.43 2.2,-4.43 -3,-0.85 -4.6,-2.99 -4.6,-4.99 0,-3.58 5,-6.33 11,-6.33 l 0.1,1.14 c -5.1,0 -8.5,2.55 -8.5,5.19 0,2.3 1.9,4.14 4.1,4.28 h 2.9 c 4.3,0 9.9,0 9.9,-4.28 0,-2.69 -3.5,-5.19 -8.4,-5.19 h 0 l -0.1,-1.14 c 5.9,0 11.1,2.55 11.1,6.43 0,1.75 -0.7,4.29 -3.2,5.68 -2.7,1.39 -5.6,1.39 -8.6,1.39 -1.3,0 -3.4,0 -3.7,0.05 -1.6,0.2 -2.7,1.75 -2.7,3.34 z"
           inkscape:connector-curvature="0"
           style="fill:#000000;stroke-width:0" /><path
           id="path5330"
           d="m 1303.1,297.64 0.1,-0.19 0,-0.19 0.1,-0.18 0.1,-0.17 0.1,-0.18 0,-0.16 0.1,-0.16 0.1,-0.16 0.1,-0.15 0.2,-0.15 0.1,-0.14 0.1,-0.13 0.1,-0.13 0.2,-0.12 0.1,-0.12 0.1,-0.11 0.2,-0.11 0.1,-0.1 0.2,-0.09 0.1,-0.09 0.2,-0.08 0.2,-0.07 0.2,-0.07 0.1,-0.06 0.2,-0.06 0.2,-0.04 0.2,-0.04 0.2,-0.04 0.2,-0.02 0.2,-0.02 0.2,-0.01 0.2,-0.01 c 1.7,0 2.8,1.14 3.6,2.74 0.9,1.79 1.5,4.84 1.5,4.93 0,0.5 -0.4,0.5 -0.6,0.5 -0.5,0 -0.5,-0.2 -0.7,-0.9 -0.7,-2.78 -1.6,-6.17 -3.7,-6.17 -1.1,0 -1.5,0.65 -1.5,2.29 0,1.1 0.6,3.44 0.9,5.18 l 1.5,5.39 c 0.1,0.75 0.6,2.64 0.8,3.39 0.2,1.14 0.7,3.03 0.7,3.32 0,0.91 -0.7,1.35 -1.4,1.35 -0.3,0 -1.6,-0.05 -1.9,-1.74 -1,-3.64 -3.2,-12.36 -3.8,-15 -0.1,-0.2 -2,-4.18 -5.7,-4.18 -2.6,0 -3.1,2.25 -3.1,4.09 0,2.78 1.4,6.72 2.7,10.16 0.6,1.5 0.9,2.18 0.9,3.14 0,2.23 -1.6,4.08 -4.1,4.08 -4.8,0 -6.6,-7.22 -6.6,-7.68 0,-0.5 0.5,-0.5 0.6,-0.5 0.5,0 0.6,0.11 0.8,0.91 1.3,4.33 3.2,6.17 5.1,6.17 0.4,0 1.2,-0.05 1.2,-1.64 0,-1.2 -0.6,-2.64 -0.9,-3.39 -1.8,-4.94 -2.8,-8.02 -2.8,-10.45 0,-4.74 3.4,-5.99 6.1,-5.99 3.3,0 5.1,2.24 5.9,3.35 z"
           inkscape:connector-curvature="0"
           style="fill:#000000;stroke-width:0" /><path
           id="path5332"
           d="m 1346.5,341.44 -0.1,3.67 -0.1,3.67 -0.3,3.66 -0.4,3.64 -0.5,3.61 -0.7,3.58 -0.8,3.54 -0.9,3.49 -1.1,3.44 -0.6,1.69 -0.7,1.68 -0.6,1.66 -0.8,1.65 -0.7,1.62 -0.8,1.61 -0.9,1.58 -0.9,1.56 -0.9,1.54 -1,1.51 -1,1.49 -1.1,1.47 -1.1,1.43 -1.1,1.41 c -1,1.16 -2.9,3.19 -5,4.99 -0.6,0.61 -0.7,0.61 -1.4,0.61 -0.6,0 -1,0 -1,-0.5 0,-0.2 0.2,-0.41 0.3,-0.5 1.7,-1.8 5.1,-5.14 8.4,-10.52 8,-12.86 11.7,-29.04 11.7,-48.23 0,-13.39 -1.8,-30.69 -10.1,-45.53 -3.9,-7.08 -8,-11.21 -10.1,-13.3 -0.1,-0.16 -0.2,-0.3 -0.2,-0.45 0,-0.5 0.4,-0.5 1,-0.5 0.7,0 0.8,0 1.6,0.75 16.7,15.2 21.9,38.01 21.9,58.98 z"
           inkscape:connector-curvature="0"
           style="fill:#000000;stroke-width:0" /></g>    </g>
  </g>
</svg>
