<?xml version="1.0" encoding="UTF-8" standalone="no"?>
<!-- Created with Inkscape (http://www.inkscape.org/) -->

<svg
   xmlns:dc="http://purl.org/dc/elements/1.1/"
   xmlns:cc="http://creativecommons.org/ns#"
   xmlns:rdf="http://www.w3.org/1999/02/22-rdf-syntax-ns#"
   xmlns:svg="http://www.w3.org/2000/svg"
   xmlns="http://www.w3.org/2000/svg"
   xmlns:sodipodi="http://sodipodi.sourceforge.net/DTD/sodipodi-0.dtd"
   xmlns:inkscape="http://www.inkscape.org/namespaces/inkscape"
   width="525.28571"
   height="217.91718"
   id="svg2"
   version="1.1"
   inkscape:version="0.48+devel r"
   viewBox="0 0 525.2857 217.91718"
   sodipodi:docname="union_thompson.svg">
  <sodipodi:namedview
     id="base"
     pagecolor="#ffffff"
     bordercolor="#666666"
     borderopacity="1.0"
     inkscape:pageopacity="0.0"
     inkscape:pageshadow="2"
     inkscape:zoom="1.4"
     inkscape:cx="269.52487"
     inkscape:cy="94.124961"
     inkscape:document-units="px"
     inkscape:current-layer="layer1"
     showgrid="false"
     showguides="true"
     inkscape:guide-bbox="true"
     inkscape:window-width="1615"
     inkscape:window-height="1026"
     inkscape:window-x="65"
     inkscape:window-y="24"
     inkscape:window-maximized="1"
     fit-margin-top="0"
     fit-margin-left="0"
     fit-margin-right="0"
     fit-margin-bottom="0" />
  <defs
     id="defs4">
    <marker
       inkscape:isstock="true"
       style="overflow:visible"
       id="marker5832"
       refX="0"
       refY="0"
       orient="auto"
       inkscape:stockid="Arrow1Mend">
      <path
         inkscape:connector-curvature="0"
         transform="matrix(-0.4,0,0,-0.4,-4,0)"
         style="fill:#000000;fill-opacity:1;fill-rule:evenodd;stroke:#000000;stroke-width:1pt;stroke-opacity:1"
         d="M 0,0 5,-5 -12.5,0 5,5 0,0 Z"
         id="path5834" />
    </marker>
    <marker
       inkscape:isstock="true"
       style="overflow:visible"
       id="marker5820"
       refX="0"
       refY="0"
       orient="auto"
       inkscape:stockid="Arrow1Mend">
      <path
         inkscape:connector-curvature="0"
         transform="matrix(-0.4,0,0,-0.4,-4,0)"
         style="fill:#000000;fill-opacity:1;fill-rule:evenodd;stroke:#000000;stroke-width:1pt;stroke-opacity:1"
         d="M 0,0 5,-5 -12.5,0 5,5 0,0 Z"
         id="path5822" />
    </marker>
    <marker
       inkscape:isstock="true"
       style="overflow:visible"
       id="marker5669"
       refX="0"
       refY="0"
       orient="auto"
       inkscape:stockid="Arrow1Mend">
      <path
         inkscape:connector-curvature="0"
         transform="matrix(-0.4,0,0,-0.4,-4,0)"
         style="fill:#000000;fill-opacity:1;fill-rule:evenodd;stroke:#000000;stroke-width:1pt;stroke-opacity:1"
         d="M 0,0 5,-5 -12.5,0 5,5 0,0 Z"
         id="path5671" />
    </marker>
    <marker
       inkscape:isstock="true"
       style="overflow:visible"
       id="marker5657"
       refX="0"
       refY="0"
       orient="auto"
       inkscape:stockid="Arrow1Mend">
      <path
         inkscape:connector-curvature="0"
         transform="matrix(-0.4,0,0,-0.4,-4,0)"
         style="fill:#000000;fill-opacity:1;fill-rule:evenodd;stroke:#000000;stroke-width:1pt;stroke-opacity:1"
         d="M 0,0 5,-5 -12.5,0 5,5 0,0 Z"
         id="path5659" />
    </marker>
    <marker
       inkscape:isstock="true"
       style="overflow:visible"
       id="marker4684"
       refX="0"
       refY="0"
       orient="auto"
       inkscape:stockid="Arrow1Mend">
      <path
         transform="matrix(-0.4,0,0,-0.4,-4,0)"
         style="fill:#000000;fill-opacity:1;fill-rule:evenodd;stroke:#000000;stroke-width:1pt;stroke-opacity:1"
         d="M 0,0 5,-5 -12.5,0 5,5 0,0 Z"
         id="path4686"
         inkscape:connector-curvature="0" />
    </marker>
    <marker
       inkscape:isstock="true"
       style="overflow:visible"
       id="marker4603"
       refX="0"
       refY="0"
       orient="auto"
       inkscape:stockid="Arrow1Mend">
      <path
         transform="matrix(-0.4,0,0,-0.4,-4,0)"
         style="fill:#000000;fill-opacity:1;fill-rule:evenodd;stroke:#000000;stroke-width:1pt;stroke-opacity:1"
         d="M 0,0 5,-5 -12.5,0 5,5 0,0 Z"
         id="path4605"
         inkscape:connector-curvature="0" />
    </marker>
    <marker
       inkscape:stockid="Arrow1Mend"
       orient="auto"
       refY="0"
       refX="0"
       id="marker4543"
       style="overflow:visible"
       inkscape:isstock="true"
       inkscape:collect="always">
      <path
         id="path4545"
         d="M 0,0 5,-5 -12.5,0 5,5 0,0 Z"
         style="fill:#000000;fill-opacity:1;fill-rule:evenodd;stroke:#000000;stroke-width:1pt;stroke-opacity:1"
         transform="matrix(-0.4,0,0,-0.4,-4,0)"
         inkscape:connector-curvature="0" />
    </marker>
    <marker
       inkscape:isstock="true"
       style="overflow:visible"
       id="marker4441"
       refX="0"
       refY="0"
       orient="auto"
       inkscape:stockid="Arrow1Mend">
      <path
         transform="matrix(-0.4,0,0,-0.4,-4,0)"
         style="fill:#000000;fill-opacity:1;fill-rule:evenodd;stroke:#000000;stroke-width:1pt;stroke-opacity:1"
         d="M 0,0 5,-5 -12.5,0 5,5 0,0 Z"
         id="path4443"
         inkscape:connector-curvature="0" />
    </marker>
    <marker
       inkscape:stockid="DotL"
       orient="auto"
       refY="0"
       refX="0"
       id="DotL"
       style="overflow:visible"
       inkscape:isstock="true">
      <path
         id="path4148"
         d="m -2.5,-1 c 0,2.76 -2.24,5 -5,5 -2.76,0 -5,-2.24 -5,-5 0,-2.76 2.24,-5 5,-5 2.76,0 5,2.24 5,5 z"
         style="fill:#000000;fill-opacity:1;fill-rule:evenodd;stroke:#000000;stroke-width:1pt;stroke-opacity:1"
         transform="matrix(0.8,0,0,0.8,5.92,0.8)"
         inkscape:connector-curvature="0" />
    </marker>
    <marker
       inkscape:stockid="Arrow1Mend"
       orient="auto"
       refY="0"
       refX="0"
       id="Arrow1Mend"
       style="overflow:visible"
       inkscape:isstock="true"
       inkscape:collect="always">
      <path
         id="path4096"
         d="M 0,0 5,-5 -12.5,0 5,5 0,0 Z"
         style="fill:#000000;fill-opacity:1;fill-rule:evenodd;stroke:#000000;stroke-width:1pt;stroke-opacity:1"
         transform="matrix(-0.4,0,0,-0.4,-4,0)"
         inkscape:connector-curvature="0" />
    </marker>
    <marker
       inkscape:stockid="Arrow1Lend"
       orient="auto"
       refY="0"
       refX="0"
       id="Arrow1Lend"
       style="overflow:visible"
       inkscape:isstock="true">
      <path
         id="path4090"
         d="M 0,0 5,-5 -12.5,0 5,5 0,0 Z"
         style="fill:#000000;fill-opacity:1;fill-rule:evenodd;stroke:#000000;stroke-width:1pt;stroke-opacity:1"
         transform="matrix(-0.8,0,0,-0.8,-10,0)"
         inkscape:connector-curvature="0" />
    </marker>
    <marker
       inkscape:stockid="Arrow1Mend"
       orient="auto"
       refY="0"
       refX="0"
       id="marker4543-5"
       style="overflow:visible"
       inkscape:isstock="true"
       inkscape:collect="always">
      <path
         id="path4545-2"
         d="M 0,0 5,-5 -12.5,0 5,5 0,0 Z"
         style="fill:#000000;fill-opacity:1;fill-rule:evenodd;stroke:#000000;stroke-width:1pt;stroke-opacity:1"
         transform="matrix(-0.4,0,0,-0.4,-4,0)"
         inkscape:connector-curvature="0" />
    </marker>
  </defs>
  <metadata
     id="metadata7">
    <rdf:RDF>
      <cc:Work
         rdf:about="">
        <dc:format>image/svg+xml</dc:format>
        <dc:type
           rdf:resource="http://purl.org/dc/dcmitype/StillImage" />
        <dc:title></dc:title>
      </cc:Work>
    </rdf:RDF>
  </metadata>
  <g
     inkscape:label="Layer 1"
     inkscape:groupmode="layer"
     id="layer1"
     transform="translate(-66.642861,-107.76323)">
    <circle
       style="fill:#ffffff;stroke:#000000;stroke-width:0.6226415;stroke-miterlimit:4;stroke-opacity:1;stroke-dasharray:none"
       id="path4062"
       cx="87.85714"
       cy="217.36218"
       r="20.902966"
       d="M 108.76011,217.36218 A 20.902966,20.902966 0 0 1 87.85714,238.26515 20.902966,20.902966 0 0 1 66.954174,217.36218 20.902966,20.902966 0 0 1 87.85714,196.45922 20.902966,20.902966 0 0 1 108.76011,217.36218 Z" />
    <path
       style="fill:none;stroke:#000000;stroke-width:1px;stroke-linecap:butt;stroke-linejoin:miter;stroke-opacity:1;marker-start:url(#DotL);marker-end:url(#Arrow1Mend)"
       d="m 86.428566,150.21932 0.714285,45"
       id="path4081"
       inkscape:connector-curvature="0" />
    <path
       style="fill:none;stroke:#000000;stroke-width:0.74717748px;stroke-linecap:butt;stroke-linejoin:miter;stroke-opacity:1;marker-end:url(#marker5832)"
       d="M 342.5908 44.110936 C 376.87651 55.237451 413.48328 93.104758 413.48328 93.104758 "
       id="path5830"
       transform="translate(66.642853,107.76323)" />
    <path
       style="fill:none;stroke:#000000;stroke-width:0.74717748px;stroke-linecap:butt;stroke-linejoin:miter;stroke-opacity:1;marker-end:url(#marker5820)"
       d="M 112.8415 42.607593 C 121.03115 41.59952 133.29915 42.133939 133.29915 42.133939 L 323.42361 41.803709 C 323.42361 41.803709 333.89919 41.714209 338.43343 42.893469 C 339.81367 43.252437 341.20032 43.659695 342.5908 44.110936 "
       id="path5818"
       transform="translate(66.642853,107.76323)" />
    <path
       style="fill:none;stroke:#000000;stroke-width:0.74717748px;stroke-linecap:butt;stroke-linejoin:miter;stroke-opacity:1;marker-end:url(#marker4543)"
       d="M 33.230687 92.706268 C 33.230687 92.706268 73.720556 52.390449 108.99532 43.291979 C 110.09292 43.008873 111.40442 42.784485 112.8415 42.607593 "
       id="path4535"
       transform="translate(66.642853,107.76323)" />
    <g
       id="g4856"
       transform="matrix(0.22763483,0,0,-0.22763483,368.7069,330.35336)">
      <g
         word-spacing="normal"
         letter-spacing="normal"
         font-size-adjust="none"
         font-stretch="normal"
         font-weight="normal"
         font-variant="normal"
         font-style="normal"
         stroke-miterlimit="10.433"
         xml:space="preserve"
         transform="matrix(1.0629921,0,0,-1.0629921,-186.02362,789.27165)"
         id="content"
         style="font-style:normal;font-variant:normal;font-weight:normal;font-stretch:normal;letter-spacing:normal;word-spacing:normal;text-anchor:start;fill:none;stroke:#000000;stroke-linecap:butt;stroke-linejoin:miter;stroke-miterlimit:10.43299961;stroke-opacity:1;stroke-dasharray:none;stroke-dashoffset:0"><path
           id="path4859"
           d="m 488.35,417.65 0.16,0 0.16,0 0.15,0.01 0.08,0 0.08,0.01 0.07,0 0.08,0.01 0.07,0.01 0.07,0.01 0.07,0.02 0.07,0.02 0.07,0.02 0.06,0.02 0.06,0.02 0.06,0.03 0.05,0.03 0.06,0.04 0.05,0.03 0.04,0.05 0.04,0.04 0.04,0.05 0.02,0.03 0.02,0.03 0.01,0.03 0.02,0.03 0.01,0.03 0.02,0.03 0.01,0.04 0.01,0.03 0.01,0.04 0,0.04 0.01,0.04 0.01,0.04 0,0.04 0.01,0.04 0,0.05 0,0.04 c 0,1 -0.91,1 -1.75,1 l -26.96,0 c -0.84,0 -1.73,0 -1.73,-1 0,-1 0.89,-1 1.73,-1 z"
           inkscape:connector-curvature="0"
           style="fill:#000000;stroke-width:0" /></g>    </g>
    <g
       id="g5878"
       transform="translate(-72,0)">
      <circle
         r="20.902966"
         cy="215.93362"
         cx="570.71429"
         id="path4062-4-8"
         style="fill:#ffffff;stroke:#000000;stroke-width:0.6226415;stroke-miterlimit:4;stroke-opacity:1;stroke-dasharray:none"
         d="m 591.61726,215.93362 a 20.902966,20.902966 0 0 1 -20.90297,20.90297 20.902966,20.902966 0 0 1 -20.90296,-20.90297 20.902966,20.902966 0 0 1 20.90296,-20.90296 20.902966,20.902966 0 0 1 20.90297,20.90296 z" />
      <circle
         style="fill:#ffffff;stroke:#000000;stroke-width:0.47589099;stroke-miterlimit:4;stroke-opacity:1;stroke-dasharray:none"
         id="circle4998"
         cx="570.71429"
         cy="215.93362"
         r="15.97634"
         d="m 586.69063,215.93362 a 15.97634,15.97634 0 0 1 -15.97634,15.97634 15.97634,15.97634 0 0 1 -15.97634,-15.97634 15.97634,15.97634 0 0 1 15.97634,-15.97634 15.97634,15.97634 0 0 1 15.97634,15.97634 z" />
    </g>
    <path
       style="fill:none;stroke:#000000;stroke-width:0.75729692px;stroke-linecap:butt;stroke-linejoin:miter;stroke-opacity:1;marker-end:url(#marker5669)"
       d="M 345.59798 174.7284 C 378.97397 162.12135 413.45755 125.47562 413.45755 125.47562 "
       id="path5667"
       transform="translate(66.642853,107.76323)" />
    <path
       style="fill:none;stroke:#000000;stroke-width:0.75729692px;stroke-linecap:butt;stroke-linejoin:miter;stroke-opacity:1;marker-end:url(#marker5657)"
       d="M 116.11144 177.67378 C 123.93422 178.25612 133.28086 177.83784 133.28086 177.83784 L 323.40027 178.17708 C 323.40027 178.17708 333.87558 178.26898 338.40969 177.05758 C 340.79114 176.4213 343.19168 175.63732 345.59798 174.7284 "
       id="path5655"
       transform="translate(66.642853,107.76323)" />
    <path
       style="fill:none;stroke:#000000;stroke-width:0.75729692px;stroke-linecap:butt;stroke-linejoin:miter;stroke-opacity:1;marker-end:url(#marker4543-5)"
       d="M 33.215069 125.88499 C 33.215069 125.88499 73.703856 167.30135 108.97767 176.64819 C 110.87045 177.14974 113.39937 177.47189 116.11144 177.67378 "
       id="path4535-1"
       transform="translate(66.642853,107.76323)" />
    <rect
       style="fill:#ffffff;fill-opacity:1;stroke:#000000;stroke-width:0.80384797;stroke-miterlimit:4;stroke-opacity:1;stroke-dasharray:none"
       id="rect4427"
       width="229.48187"
       height="81.624725"
       x="182.75905"
       y="242.97841"
       rx="25.021387" />
    <text
       xml:space="preserve"
       style="font-size:17.5px;font-style:normal;font-weight:normal;line-height:125%;letter-spacing:0px;word-spacing:0px;fill:#000000;fill-opacity:1;stroke:none;font-family:Sans"
       x="192.14285"
       y="268.79074"
       id="text4429"
       sodipodi:linespacing="125%"><tspan
         sodipodi:role="line"
         id="tspan4431"
         x="192.14285"
         y="268.79074">S<tspan
   style="font-size:65.0000014%;baseline-shift:sub"
   id="tspan5435">2</tspan></tspan></text>
    <rect
       style="fill:#ffffff;fill-opacity:1;stroke:#000000;stroke-width:0.80384797;stroke-miterlimit:4;stroke-opacity:1;stroke-dasharray:none"
       id="rect4427-6"
       width="229.48187"
       height="81.624725"
       x="179.75906"
       y="109.86804"
       rx="25.021387" />
    <text
       xml:space="preserve"
       style="font-size:17.5px;font-style:normal;font-weight:normal;line-height:125%;letter-spacing:0px;word-spacing:0px;fill:#000000;fill-opacity:1;stroke:none;font-family:Sans"
       x="189.14287"
       y="135.68037"
       id="text4429-1"
       sodipodi:linespacing="125%"><tspan
         sodipodi:role="line"
         id="tspan4431-4"
         x="189.14287"
         y="135.68037">S<tspan
   style="font-size:65.0000014%;baseline-shift:sub"
   id="tspan5801">1</tspan></tspan></text>
  </g>
</svg>
